<mxfile host="app.diagrams.net" agent="Mozilla/5.0 (Windows NT 10.0; Win64; x64; rv:133.0) Gecko/20100101 Firefox/133.0" version="25.0.3">
  <diagram name="Page-1" id="jcq-_4__3uzvL_KcYyZr">
    <mxGraphModel dx="1050" dy="529" grid="1" gridSize="10" guides="1" tooltips="1" connect="1" arrows="1" fold="1" page="1" pageScale="1" pageWidth="850" pageHeight="1100" math="0" shadow="0">
      <root>
        <mxCell id="0" />
        <mxCell id="1" parent="0" />
        <mxCell id="PYoZ--fmbJuLYKGVBVWQ-3" style="edgeStyle=orthogonalEdgeStyle;rounded=0;orthogonalLoop=1;jettySize=auto;html=1;entryX=0.5;entryY=0;entryDx=0;entryDy=0;" edge="1" parent="1" source="PYoZ--fmbJuLYKGVBVWQ-1" target="PYoZ--fmbJuLYKGVBVWQ-2">
          <mxGeometry relative="1" as="geometry" />
        </mxCell>
        <mxCell id="PYoZ--fmbJuLYKGVBVWQ-1" value="&lt;b&gt;&lt;font face=&quot;Times New Roman&quot;&gt;Start&lt;/font&gt;&lt;/b&gt;" style="ellipse;whiteSpace=wrap;html=1;" vertex="1" parent="1">
          <mxGeometry x="340" y="70" width="120" height="80" as="geometry" />
        </mxCell>
        <mxCell id="PYoZ--fmbJuLYKGVBVWQ-5" style="edgeStyle=orthogonalEdgeStyle;rounded=0;orthogonalLoop=1;jettySize=auto;html=1;entryX=0.5;entryY=0;entryDx=0;entryDy=0;" edge="1" parent="1" source="PYoZ--fmbJuLYKGVBVWQ-2" target="PYoZ--fmbJuLYKGVBVWQ-4">
          <mxGeometry relative="1" as="geometry" />
        </mxCell>
        <mxCell id="PYoZ--fmbJuLYKGVBVWQ-2" value="&lt;b&gt;&lt;font face=&quot;Times New Roman&quot;&gt;Input userId, filterType, startDate, endDate, sortOrder&lt;/font&gt;&lt;/b&gt;" style="shape=parallelogram;perimeter=parallelogramPerimeter;whiteSpace=wrap;html=1;fixedSize=1;" vertex="1" parent="1">
          <mxGeometry x="295" y="200" width="210" height="80" as="geometry" />
        </mxCell>
        <mxCell id="PYoZ--fmbJuLYKGVBVWQ-14" style="edgeStyle=orthogonalEdgeStyle;rounded=0;orthogonalLoop=1;jettySize=auto;html=1;exitX=0.5;exitY=1;exitDx=0;exitDy=0;entryX=0.5;entryY=0;entryDx=0;entryDy=0;" edge="1" parent="1" source="PYoZ--fmbJuLYKGVBVWQ-4" target="PYoZ--fmbJuLYKGVBVWQ-6">
          <mxGeometry relative="1" as="geometry">
            <mxPoint x="400" y="440" as="targetPoint" />
          </mxGeometry>
        </mxCell>
        <mxCell id="PYoZ--fmbJuLYKGVBVWQ-4" value="&lt;font style=&quot;font-size: 13px;&quot; face=&quot;Times New Roman&quot;&gt;&lt;b&gt;Fetch All Transactions&lt;/b&gt;&lt;/font&gt;" style="rounded=0;whiteSpace=wrap;html=1;" vertex="1" parent="1">
          <mxGeometry x="325" y="330" width="150" height="70" as="geometry" />
        </mxCell>
        <mxCell id="PYoZ--fmbJuLYKGVBVWQ-23" style="edgeStyle=orthogonalEdgeStyle;rounded=0;orthogonalLoop=1;jettySize=auto;html=1;entryX=0;entryY=0.5;entryDx=0;entryDy=0;" edge="1" parent="1" source="PYoZ--fmbJuLYKGVBVWQ-6" target="PYoZ--fmbJuLYKGVBVWQ-22">
          <mxGeometry relative="1" as="geometry" />
        </mxCell>
        <mxCell id="PYoZ--fmbJuLYKGVBVWQ-75" style="edgeStyle=orthogonalEdgeStyle;rounded=0;orthogonalLoop=1;jettySize=auto;html=1;exitX=0.5;exitY=1;exitDx=0;exitDy=0;entryX=0.5;entryY=0;entryDx=0;entryDy=0;" edge="1" parent="1" source="PYoZ--fmbJuLYKGVBVWQ-6" target="PYoZ--fmbJuLYKGVBVWQ-31">
          <mxGeometry relative="1" as="geometry" />
        </mxCell>
        <mxCell id="PYoZ--fmbJuLYKGVBVWQ-6" value="&lt;b&gt;&lt;font face=&quot;Times New Roman&quot;&gt;Filter by Type?&lt;br&gt;&lt;/font&gt;&lt;/b&gt;" style="rhombus;whiteSpace=wrap;html=1;" vertex="1" parent="1">
          <mxGeometry x="350" y="440" width="100" height="90" as="geometry" />
        </mxCell>
        <mxCell id="PYoZ--fmbJuLYKGVBVWQ-22" value="&lt;b&gt;&lt;font face=&quot;Times New Roman&quot;&gt;Apply Type Filter&lt;/font&gt;&lt;/b&gt;" style="rounded=0;whiteSpace=wrap;html=1;" vertex="1" parent="1">
          <mxGeometry x="520" y="455" width="120" height="60" as="geometry" />
        </mxCell>
        <mxCell id="PYoZ--fmbJuLYKGVBVWQ-78" style="edgeStyle=orthogonalEdgeStyle;rounded=0;orthogonalLoop=1;jettySize=auto;html=1;exitX=0.5;exitY=1;exitDx=0;exitDy=0;entryX=0.5;entryY=0;entryDx=0;entryDy=0;" edge="1" parent="1" source="PYoZ--fmbJuLYKGVBVWQ-31" target="PYoZ--fmbJuLYKGVBVWQ-44">
          <mxGeometry relative="1" as="geometry" />
        </mxCell>
        <mxCell id="PYoZ--fmbJuLYKGVBVWQ-84" style="edgeStyle=orthogonalEdgeStyle;rounded=0;orthogonalLoop=1;jettySize=auto;html=1;exitX=1;exitY=0.5;exitDx=0;exitDy=0;entryX=0;entryY=0.5;entryDx=0;entryDy=0;" edge="1" parent="1" source="PYoZ--fmbJuLYKGVBVWQ-31" target="PYoZ--fmbJuLYKGVBVWQ-32">
          <mxGeometry relative="1" as="geometry" />
        </mxCell>
        <mxCell id="PYoZ--fmbJuLYKGVBVWQ-31" value="&lt;b&gt;&lt;font face=&quot;Times New Roman&quot;&gt;Filter by Start Date?&lt;/font&gt;&lt;/b&gt;" style="rhombus;whiteSpace=wrap;html=1;" vertex="1" parent="1">
          <mxGeometry x="350" y="560" width="100" height="90" as="geometry" />
        </mxCell>
        <mxCell id="PYoZ--fmbJuLYKGVBVWQ-32" value="&lt;b&gt;&lt;font face=&quot;Times New Roman&quot;&gt;Apply Start Date Filter&lt;/font&gt;&lt;/b&gt;" style="rounded=0;whiteSpace=wrap;html=1;" vertex="1" parent="1">
          <mxGeometry x="520" y="575" width="120" height="60" as="geometry" />
        </mxCell>
        <mxCell id="PYoZ--fmbJuLYKGVBVWQ-41" value="&lt;b&gt;&lt;font face=&quot;Times New Roman&quot;&gt;yes&lt;/font&gt;&lt;/b&gt;" style="text;html=1;align=center;verticalAlign=middle;whiteSpace=wrap;rounded=0;" vertex="1" parent="1">
          <mxGeometry x="456" y="829" width="60" height="30" as="geometry" />
        </mxCell>
        <mxCell id="PYoZ--fmbJuLYKGVBVWQ-79" style="edgeStyle=orthogonalEdgeStyle;rounded=0;orthogonalLoop=1;jettySize=auto;html=1;exitX=1;exitY=0.5;exitDx=0;exitDy=0;entryX=0;entryY=0.5;entryDx=0;entryDy=0;" edge="1" parent="1" source="PYoZ--fmbJuLYKGVBVWQ-44" target="PYoZ--fmbJuLYKGVBVWQ-47">
          <mxGeometry relative="1" as="geometry" />
        </mxCell>
        <mxCell id="PYoZ--fmbJuLYKGVBVWQ-87" style="edgeStyle=orthogonalEdgeStyle;rounded=0;orthogonalLoop=1;jettySize=auto;html=1;exitX=0.5;exitY=1;exitDx=0;exitDy=0;entryX=0.5;entryY=0;entryDx=0;entryDy=0;" edge="1" parent="1" source="PYoZ--fmbJuLYKGVBVWQ-44" target="PYoZ--fmbJuLYKGVBVWQ-55">
          <mxGeometry relative="1" as="geometry" />
        </mxCell>
        <mxCell id="PYoZ--fmbJuLYKGVBVWQ-44" value="&lt;b&gt;&lt;font face=&quot;Times New Roman&quot;&gt;Filter by End Date?&lt;/font&gt;&lt;/b&gt;" style="rhombus;whiteSpace=wrap;html=1;" vertex="1" parent="1">
          <mxGeometry x="350" y="680" width="100" height="90" as="geometry" />
        </mxCell>
        <mxCell id="PYoZ--fmbJuLYKGVBVWQ-47" value="&lt;b&gt;&lt;font face=&quot;Times New Roman&quot;&gt;Apply End Date Filter&lt;/font&gt;&lt;/b&gt;" style="rounded=0;whiteSpace=wrap;html=1;" vertex="1" parent="1">
          <mxGeometry x="520" y="695" width="120" height="60" as="geometry" />
        </mxCell>
        <mxCell id="PYoZ--fmbJuLYKGVBVWQ-58" style="edgeStyle=orthogonalEdgeStyle;rounded=0;orthogonalLoop=1;jettySize=auto;html=1;entryX=0;entryY=0.5;entryDx=0;entryDy=0;" edge="1" parent="1" source="PYoZ--fmbJuLYKGVBVWQ-55" target="PYoZ--fmbJuLYKGVBVWQ-57">
          <mxGeometry relative="1" as="geometry" />
        </mxCell>
        <mxCell id="PYoZ--fmbJuLYKGVBVWQ-98" style="edgeStyle=orthogonalEdgeStyle;rounded=0;orthogonalLoop=1;jettySize=auto;html=1;exitX=0;exitY=0.5;exitDx=0;exitDy=0;entryX=1;entryY=0.5;entryDx=0;entryDy=0;" edge="1" parent="1" source="PYoZ--fmbJuLYKGVBVWQ-55" target="PYoZ--fmbJuLYKGVBVWQ-95">
          <mxGeometry relative="1" as="geometry" />
        </mxCell>
        <mxCell id="PYoZ--fmbJuLYKGVBVWQ-55" value="&lt;b&gt;&lt;font face=&quot;Times New Roman&quot;&gt;Sort by Date ASC/DESC?&lt;/font&gt;&lt;/b&gt;" style="rhombus;whiteSpace=wrap;html=1;" vertex="1" parent="1">
          <mxGeometry x="340" y="800" width="120" height="110" as="geometry" />
        </mxCell>
        <mxCell id="PYoZ--fmbJuLYKGVBVWQ-57" value="&lt;b&gt;&lt;font face=&quot;Times New Roman&quot;&gt;Apply Sort&lt;/font&gt;&lt;/b&gt;" style="rounded=0;whiteSpace=wrap;html=1;" vertex="1" parent="1">
          <mxGeometry x="530" y="825" width="120" height="60" as="geometry" />
        </mxCell>
        <mxCell id="PYoZ--fmbJuLYKGVBVWQ-71" value="&lt;b&gt;&lt;font face=&quot;Times New Roman&quot;&gt;yes&lt;/font&gt;&lt;/b&gt;" style="text;html=1;align=center;verticalAlign=middle;whiteSpace=wrap;rounded=0;" vertex="1" parent="1">
          <mxGeometry x="450" y="460" width="60" height="30" as="geometry" />
        </mxCell>
        <mxCell id="PYoZ--fmbJuLYKGVBVWQ-80" value="&lt;b&gt;&lt;font face=&quot;Times New Roman&quot;&gt;yes&lt;/font&gt;&lt;/b&gt;" style="text;html=1;align=center;verticalAlign=middle;whiteSpace=wrap;rounded=0;" vertex="1" parent="1">
          <mxGeometry x="445" y="700" width="60" height="30" as="geometry" />
        </mxCell>
        <mxCell id="PYoZ--fmbJuLYKGVBVWQ-85" value="&lt;b&gt;&lt;font face=&quot;Times New Roman&quot;&gt;yes&lt;/font&gt;&lt;/b&gt;" style="text;html=1;align=center;verticalAlign=middle;whiteSpace=wrap;rounded=0;" vertex="1" parent="1">
          <mxGeometry x="450" y="579" width="60" height="30" as="geometry" />
        </mxCell>
        <mxCell id="PYoZ--fmbJuLYKGVBVWQ-89" value="&lt;b&gt;&lt;font face=&quot;Times New Roman&quot;&gt;no&lt;/font&gt;&lt;/b&gt;" style="text;html=1;align=center;verticalAlign=middle;whiteSpace=wrap;rounded=0;" vertex="1" parent="1">
          <mxGeometry x="382" y="526" width="60" height="30" as="geometry" />
        </mxCell>
        <mxCell id="PYoZ--fmbJuLYKGVBVWQ-90" value="&lt;b&gt;&lt;font face=&quot;Times New Roman&quot;&gt;no&lt;/font&gt;&lt;/b&gt;" style="text;html=1;align=center;verticalAlign=middle;whiteSpace=wrap;rounded=0;" vertex="1" parent="1">
          <mxGeometry x="384" y="645" width="60" height="30" as="geometry" />
        </mxCell>
        <mxCell id="PYoZ--fmbJuLYKGVBVWQ-91" value="&lt;b&gt;&lt;font face=&quot;Times New Roman&quot;&gt;no&lt;/font&gt;&lt;/b&gt;" style="text;html=1;align=center;verticalAlign=middle;whiteSpace=wrap;rounded=0;" vertex="1" parent="1">
          <mxGeometry x="382" y="764" width="60" height="30" as="geometry" />
        </mxCell>
        <mxCell id="PYoZ--fmbJuLYKGVBVWQ-102" style="edgeStyle=orthogonalEdgeStyle;rounded=0;orthogonalLoop=1;jettySize=auto;html=1;entryX=0.5;entryY=0;entryDx=0;entryDy=0;" edge="1" parent="1" source="PYoZ--fmbJuLYKGVBVWQ-95" target="PYoZ--fmbJuLYKGVBVWQ-101">
          <mxGeometry relative="1" as="geometry" />
        </mxCell>
        <mxCell id="PYoZ--fmbJuLYKGVBVWQ-95" value="&lt;b&gt;&lt;font face=&quot;Times New Roman&quot;&gt;Display Results&lt;/font&gt;&lt;/b&gt;" style="rounded=0;whiteSpace=wrap;html=1;" vertex="1" parent="1">
          <mxGeometry x="150" y="825" width="120" height="60" as="geometry" />
        </mxCell>
        <mxCell id="PYoZ--fmbJuLYKGVBVWQ-99" value="&lt;b&gt;&lt;font face=&quot;Times New Roman&quot;&gt;no&lt;/font&gt;&lt;/b&gt;" style="text;html=1;align=center;verticalAlign=middle;whiteSpace=wrap;rounded=0;" vertex="1" parent="1">
          <mxGeometry x="278" y="830" width="60" height="30" as="geometry" />
        </mxCell>
        <mxCell id="PYoZ--fmbJuLYKGVBVWQ-105" style="edgeStyle=orthogonalEdgeStyle;rounded=0;orthogonalLoop=1;jettySize=auto;html=1;entryX=0;entryY=0.5;entryDx=0;entryDy=0;" edge="1" parent="1" source="PYoZ--fmbJuLYKGVBVWQ-101" target="PYoZ--fmbJuLYKGVBVWQ-104">
          <mxGeometry relative="1" as="geometry" />
        </mxCell>
        <mxCell id="PYoZ--fmbJuLYKGVBVWQ-101" value="&lt;b&gt;&lt;font face=&quot;Times New Roman&quot;&gt;&lt;br&gt;Export Results (CSV)&lt;br&gt;&lt;br&gt;&lt;/font&gt;&lt;/b&gt;" style="rounded=0;whiteSpace=wrap;html=1;" vertex="1" parent="1">
          <mxGeometry x="150" y="960" width="120" height="60" as="geometry" />
        </mxCell>
        <mxCell id="PYoZ--fmbJuLYKGVBVWQ-104" value="&lt;blockquote&gt;&lt;b&gt;&lt;font face=&quot;Times New Roman&quot;&gt;End&lt;/font&gt;&lt;/b&gt;&lt;/blockquote&gt;" style="ellipse;whiteSpace=wrap;html=1;" vertex="1" parent="1">
          <mxGeometry x="365" y="950" width="120" height="80" as="geometry" />
        </mxCell>
      </root>
    </mxGraphModel>
  </diagram>
</mxfile>
